<mxfile host="Electron" agent="Mozilla/5.0 (Windows NT 10.0; Win64; x64) AppleWebKit/537.36 (KHTML, like Gecko) draw.io/26.0.4 Chrome/128.0.6613.186 Electron/32.2.5 Safari/537.36" version="26.0.4">
  <diagram name="Page-1" id="74b105a0-9070-1c63-61bc-23e55f88626e">
    <mxGraphModel dx="1296" dy="1009" grid="1" gridSize="10" guides="1" tooltips="1" connect="1" arrows="1" fold="1" page="1" pageScale="1.5" pageWidth="1169" pageHeight="826" background="none" math="0" shadow="0">
      <root>
        <mxCell id="0" style=";html=1;" />
        <mxCell id="1" style=";html=1;" parent="0" />
        <mxCell id="business-label" value="业&lt;div&gt;务&lt;/div&gt;&lt;div&gt;系&lt;/div&gt;&lt;div&gt;统&lt;/div&gt;" style="text;html=1;verticalAlign=middle;align=center;labelBackgroundColor=#fffde7;strokeColor=none;fillColor=#fffde7;fontSize=16;fontStyle=1;writing-mode=vertical-rl;" vertex="1" parent="1">
          <mxGeometry x="20" y="60" width="40" height="180" as="geometry" />
        </mxCell>
        <mxCell id="business-group" value="" style="rounded=1;strokeColor=#bdbdbd;fillColor=#e3f2fd;html=1;" vertex="1" parent="1">
          <mxGeometry x="70" y="60" width="900" height="180" as="geometry" />
        </mxCell>
        <mxCell id="MainActivity" value="MainActivity&lt;br/&gt;(主界面)" style="rounded=1;strokeWidth=2;fillColor=#90caf9;strokeColor=#1976d2;html=1;fontSize=12;" vertex="1" parent="business-group">
          <mxGeometry x="30" y="30" width="120" height="60" as="geometry" />
        </mxCell>
        <mxCell id="LoginActivity" value="LoginActivity&lt;br/&gt;(登录)" style="rounded=1;strokeWidth=2;fillColor=#90caf9;strokeColor=#1976d2;html=1;fontSize=12;" vertex="1" parent="business-group">
          <mxGeometry x="170" y="30" width="120" height="60" as="geometry" />
        </mxCell>
        <mxCell id="RegisterActivity" value="RegisterActivity&lt;br/&gt;(注册)" style="rounded=1;strokeWidth=2;fillColor=#90caf9;strokeColor=#1976d2;html=1;fontSize=12;" vertex="1" parent="business-group">
          <mxGeometry x="310" y="30" width="120" height="60" as="geometry" />
        </mxCell>
        <mxCell id="AddBillActivity" value="AddBillActivity&lt;br/&gt;(添加账单)" style="rounded=1;strokeWidth=2;fillColor=#90caf9;strokeColor=#1976d2;html=1;fontSize=12;" vertex="1" parent="business-group">
          <mxGeometry x="450" y="30" width="120" height="60" as="geometry" />
        </mxCell>
        <mxCell id="BillDetailActivity" value="BillDetailActivity&lt;br/&gt;(账单详情)" style="rounded=1;strokeWidth=2;fillColor=#90caf9;strokeColor=#1976d2;html=1;fontSize=12;" vertex="1" parent="business-group">
          <mxGeometry x="590" y="30" width="120" height="60" as="geometry" />
        </mxCell>
        <mxCell id="StatisticsActivity" value="StatisticsActivity&lt;br/&gt;(统计)" style="rounded=1;strokeWidth=2;fillColor=#90caf9;strokeColor=#1976d2;html=1;fontSize=12;" vertex="1" parent="business-group">
          <mxGeometry x="730" y="30" width="120" height="60" as="geometry" />
        </mxCell>
        <mxCell id="module-label" value="通&lt;div&gt;用&lt;/div&gt;&lt;div&gt;模&lt;/div&gt;&lt;div&gt;块&lt;/div&gt;" style="text;html=1;verticalAlign=middle;align=center;labelBackgroundColor=#fffde7;strokeColor=none;fillColor=#fffde7;fontSize=16;fontStyle=1;writing-mode=vertical-rl;" vertex="1" parent="1">
          <mxGeometry x="20" y="260" width="40" height="180" as="geometry" />
        </mxCell>
        <mxCell id="module-group" value="" style="rounded=1;strokeColor=#bdbdbd;fillColor=#ffcdd2;html=1;" vertex="1" parent="1">
          <mxGeometry x="70" y="260" width="900" height="180" as="geometry" />
        </mxCell>
        <mxCell id="NotificationSettingsActivity" value="NotificationSettingsActivity&lt;br/&gt;(通知设置)" style="rounded=1;strokeWidth=2;fillColor=#ef9a9a;strokeColor=#b71c1c;html=1;fontSize=12;" vertex="1" parent="module-group">
          <mxGeometry x="30" y="30" width="140" height="60" as="geometry" />
        </mxCell>
        <mxCell id="ProfileFragment" value="ProfileFragment&lt;br/&gt;(个人中心)" style="rounded=1;strokeWidth=2;fillColor=#ef9a9a;strokeColor=#b71c1c;html=1;fontSize=12;" vertex="1" parent="module-group">
          <mxGeometry x="190" y="30" width="140" height="60" as="geometry" />
        </mxCell>
        <mxCell id="AboutFragment" value="AboutFragment&lt;br/&gt;(关于)" style="rounded=1;strokeWidth=2;fillColor=#ef9a9a;strokeColor=#b71c1c;html=1;fontSize=12;" vertex="1" parent="module-group">
          <mxGeometry x="350" y="30" width="140" height="60" as="geometry" />
        </mxCell>
        <mxCell id="BillAdapter" value="BillAdapter&lt;br/&gt;(账单适配器)" style="rounded=1;strokeWidth=2;fillColor=#ef9a9a;strokeColor=#b71c1c;html=1;fontSize=12;" vertex="1" parent="module-group">
          <mxGeometry x="510" y="30" width="140" height="60" as="geometry" />
        </mxCell>
        <mxCell id="NotificationScheduler" value="NotificationScheduler&lt;br/&gt;(通知调度)" style="rounded=1;strokeWidth=2;fillColor=#ef9a9a;strokeColor=#b71c1c;html=1;fontSize=12;" vertex="1" parent="module-group">
          <mxGeometry x="670" y="30" width="140" height="60" as="geometry" />
        </mxCell>
        <mxCell id="NotificationService" value="NotificationService&lt;br/&gt;(通知服务)" style="rounded=1;strokeWidth=2;fillColor=#ef9a9a;strokeColor=#b71c1c;html=1;fontSize=12;" vertex="1" parent="module-group">
          <mxGeometry x="30" y="110" width="140" height="60" as="geometry" />
        </mxCell>
        <mxCell id="NotificationReceiver" value="NotificationReceiver&lt;br/&gt;(通知接收)" style="rounded=1;strokeWidth=2;fillColor=#ef9a9a;strokeColor=#b71c1c;html=1;fontSize=12;" vertex="1" parent="module-group">
          <mxGeometry x="190" y="110" width="140" height="60" as="geometry" />
        </mxCell>
        <mxCell id="framework-label" value="框&lt;div&gt;架&lt;/div&gt;&lt;div&gt;组&lt;/div&gt;&lt;div&gt;件&lt;/div&gt;" style="text;html=1;verticalAlign=middle;align=center;labelBackgroundColor=#fffde7;strokeColor=none;fillColor=#fffde7;fontSize=16;fontStyle=1;writing-mode=vertical-rl;" vertex="1" parent="1">
          <mxGeometry x="20" y="460" width="40" height="180" as="geometry" />
        </mxCell>
        <mxCell id="framework-group" value="" style="rounded=1;strokeColor=#bdbdbd;fillColor=#c8e6c9;html=1;" vertex="1" parent="1">
          <mxGeometry x="70" y="460" width="900" height="180" as="geometry" />
        </mxCell>
        <mxCell id="DatabaseHelper" value="DatabaseHelper&lt;br/&gt;(数据库帮助)" style="rounded=1;strokeWidth=2;fillColor=#81c784;strokeColor=#388e3c;html=1;fontSize=12;" vertex="1" parent="framework-group">
          <mxGeometry x="30" y="30" width="140" height="60" as="geometry" />
        </mxCell>
        <mxCell id="BillDao" value="BillDao&lt;br/&gt;(账单DAO)" style="rounded=1;strokeWidth=2;fillColor=#81c784;strokeColor=#388e3c;html=1;fontSize=12;" vertex="1" parent="framework-group">
          <mxGeometry x="190" y="30" width="140" height="60" as="geometry" />
        </mxCell>
        <mxCell id="UserDao" value="UserDao&lt;br/&gt;(用户DAO)" style="rounded=1;strokeWidth=2;fillColor=#81c784;strokeColor=#388e3c;html=1;fontSize=12;" vertex="1" parent="framework-group">
          <mxGeometry x="350" y="30" width="140" height="60" as="geometry" />
        </mxCell>
        <mxCell id="User" value="User&lt;br/&gt;(用户模型)" style="rounded=1;strokeWidth=2;fillColor=#81c784;strokeColor=#388e3c;html=1;fontSize=12;" vertex="1" parent="framework-group">
          <mxGeometry x="510" y="30" width="140" height="60" as="geometry" />
        </mxCell>
        <mxCell id="Bill" value="Bill&lt;br/&gt;(账单模型)" style="rounded=1;strokeWidth=2;fillColor=#81c784;strokeColor=#388e3c;html=1;fontSize=12;" vertex="1" parent="framework-group">
          <mxGeometry x="670" y="30" width="140" height="60" as="geometry" />
        </mxCell>
        <mxCell id="edge4" style="edgeStyle=orthogonalEdgeStyle;rounded=1;curved=1;html=1;endArrow=block;endFill=1;strokeWidth=2;" parent="1" source="BillDetailActivity" target="BillDao" edge="1">
          <mxGeometry relative="1" as="geometry">
            <Array as="points">
              <mxPoint x="650" y="180" />
              <mxPoint x="410" y="465" />
            </Array>
          </mxGeometry>
        </mxCell>
      </root>
    </mxGraphModel>
  </diagram>
</mxfile>
